<svg version="1.1" id="Layer_1" xmlns="http://www.w3.org/2000/svg" xmlns:xlink="http://www.w3.org/1999/xlink" x="0px" y="0px" viewBox="0 0 372.4 65.3" style="enable-background:new 0 0 372.4 65.3;" xml:space="preserve"><style type="text/css">.st0{fill:#DC1405;}
</style><path class="st0" d="M41.1,21.2C24.5,21.2,5,30.7,5,45.3c0,9.6,10.7,15.5,24.2,15c11.4-0.4,21.3-3.6,29.5-10.7L55.3,46c0,0-8.1,4.9-17.2,4.9c-8,0-11.1-3.8-11.1-8C27,36.2,34,30,40.5,30c2.5,0,4.2,1.3,4.2,3.6c0,1.2-0.3,2.3-0.7,3.3l-1,2.5h18.5c1-1.9,1.6-4,1.7-6.1C63.1,25,53.2,21.2,41.1,21.2"></path><path class="st0" d="M158.3,21.5c-5.3,0-9.8,2.7-12.8,5.2l-1.1-4.1h-15.7l-11.1,36.3H138l5.9-19.2c1.2-4.1,3.2-7.2,5.6-7.2c1.2,0,2,0.9,2,2.4c0,1.7-1.7,5.5-1.7,5.5h17.6c0,0,2.6-5.8,2.6-9.2C170,26.4,167,21.5,158.3,21.5"></path><path class="st0" d="M98,29.6c2.9,0,4.3,2,4.3,4.6c0,0.5-0.1,1-0.2,1.5H87.6C89.8,32,93.7,29.8,98,29.6 M96.7,50.9c-6.5,0-11-2.8-11-8.2h34c0.6-2,0.9-4,0.9-6.1c0-9.9-8.7-15.4-21-15.4c-16.6,0-36.1,9.5-36.1,24.1c0,8.9,9.2,14.6,22.4,15c11.7,0.2,22.8-3.6,30.9-10.7l-3.4-3.6C108.4,49.2,102.6,50.9,96.7,50.9"></path><polygon class="st0" points="292.2,5 263,5 258,18.5 269.1,18.5 "></polygon><polygon class="st0" points="220.7,22.5 199.4,44.8 193.5,22.5 170.7,22.5 180.5,58.9 200.7,58.9 235.6,22.5 "></polygon><polygon class="st0" points="295.2,5 278.7,58.9 299.2,58.9 315.7,5 "></polygon><path class="st0" d="M334.1,51.4c-3.2,0-5.2-2.7-5.2-6.5c0-6.5,5.9-14.7,11.8-14.7c3.2,0,5.2,2.7,5.2,6.5C345.9,43.2,340,51.4,334.1,51.4 M343.5,21.2c-16.4,0-36.1,9.5-36.1,24c0,9.2,9.9,15.1,24,15.1c16.5,0,36.1-9.3,36.1-23.8C367.4,27.3,357.6,21.2,343.5,21.2"></path><path class="st0" d="M258.8,29.6c2.9,0,4.3,2,4.3,4.6c0,0.5-0.1,1-0.1,1.5h-14.5C250.7,32,254.6,29.8,258.8,29.6 M257.5,50.9c-6.5,0-11-2.8-11-8.2h34c0.6-2,1-4,1-6.1c0-9.9-8.7-15.4-21-15.4c-16.6,0-36.1,9.5-36.1,24.1c0,8.9,9.2,14.6,22.4,15c11.7,0.2,22.8-3.6,30.9-10.7l-3.4-3.6C269.3,49.2,263.5,50.9,257.5,50.9"></path></svg>